<svg aria-hidden="true" style="position: absolute; width: 0; height: 0; overflow: hidden;" version="1.1" xmlns="http://www.w3.org/2000/svg" xmlns:xlink="http://www.w3.org/1999/xlink">
<defs>
<symbol id="icon-search" viewBox="0 0 32 32">
<path fill="none" stroke="#fff" style="stroke: var(--color2, #fff)" stroke-linejoin="round" stroke-linecap="round" stroke-miterlimit="4" stroke-width="2.6667" d="M14.667 25.333c5.891 0 10.667-4.776 10.667-10.667s-4.776-10.667-10.667-10.667c-5.891 0-10.667 4.776-10.667 10.667s4.776 10.667 10.667 10.667z"></path>
<path fill="none" stroke="#fff" style="stroke: var(--color2, #fff)" stroke-linejoin="round" stroke-linecap="round" stroke-miterlimit="4" stroke-width="2.6667" d="M28 28.001l-5.8-5.8"></path>
</symbol>
<symbol id="icon-logo" viewBox="0 0 32 32">
<path stroke-linejoin="round" stroke-linecap="round" stroke-miterlimit="4" stroke-width="2.6667" d="M26.427 2.667h-20.853c-1.605 0-2.907 1.301-2.907 2.907v20.853c0 1.605 1.301 2.907 2.907 2.907h20.853c1.605 0 2.907-1.301 2.907-2.907v-20.853c0-1.605-1.301-2.907-2.907-2.907z"></path>
<path stroke-linejoin="round" stroke-linecap="round" stroke-miterlimit="4" stroke-width="2.6667" d="M9.333 2.667v26.667"></path>
<path stroke-linejoin="round" stroke-linecap="round" stroke-miterlimit="4" stroke-width="2.6667" d="M22.667 2.667v26.667"></path>
<path stroke-linejoin="round" stroke-linecap="round" stroke-miterlimit="4" stroke-width="2.6667" d="M2.667 16h26.667"></path>
<path stroke-linejoin="round" stroke-linecap="round" stroke-miterlimit="4" stroke-width="2.6667" d="M2.667 9.333h6.667"></path>
<path stroke-linejoin="round" stroke-linecap="round" stroke-miterlimit="4" stroke-width="2.6667" d="M2.667 22.667h6.667"></path>
<path stroke-linejoin="round" stroke-linecap="round" stroke-miterlimit="4" stroke-width="2.6667" d="M22.667 22.667h6.667"></path>
<path stroke-linejoin="round" stroke-linecap="round" stroke-miterlimit="4" stroke-width="2.6667" d="M22.667 9.333h6.667"></path>
</symbol>
<symbol id="icon-heart" viewBox="0 0 32 32">
<path d="M16 30.583l-2.24-2.24c-8.32-7.36-13.76-12.32-13.76-18.4 0-4.96 3.84-8.8 8.8-8.8 2.72 0 5.44 1.28 7.2 3.36 1.76-2.080 4.48-3.36 7.2-3.36 4.96 0 8.8 3.84 8.8 8.8 0 6.080-5.44 11.040-13.76 18.4l-2.24 2.24z"></path>
</symbol>
<symbol id="icon-close" viewBox="0 0 32 32">
<path d="M26.667 7.303l-1.97-1.97-7.808 7.808-7.808-7.808-1.97 1.97 7.808 7.808-7.808 7.808 1.97 1.97 7.808-7.808 7.808 7.808 1.97-1.97-7.808-7.808 7.808-7.808z"></path>
</symbol>
<symbol id="right-arrow" viewBox="0 0 32 32">
<path d="M24.301 14.971l-14.545-14.545c-0.568-0.568-1.489-0.568-2.057 0s-0.568 1.489 0 2.057l13.517 13.517-13.517 13.517c-0.568 0.568-0.568 1.489 0 2.057 0.284 0.284 0.656 0.426 1.028 0.426s0.745-0.142 1.029-0.426l14.545-14.546c0.273-0.273 0.426-0.643 0.426-1.028s-0.153-0.756-0.426-1.029z"></path>
</symbol>
<symbol id="left-arrow" viewBox="0 0 32 32">
<path d="M10.784 16l13.517-13.517c0.568-0.568 0.568-1.489 0-2.057s-1.489-0.568-2.057 0l-14.545 14.546c-0.273 0.273-0.426 0.643-0.426 1.028s0.153 0.756 0.426 1.029l14.545 14.545c0.284 0.284 0.656 0.426 1.028 0.426s0.745-0.142 1.029-0.426c0.568-0.568 0.568-1.489 0-2.057l-13.517-13.517z"></path>
</symbol>
<symbol id="double-right-arrow" viewBox="0 0 32 32">
<path d="M16 27v-10l-10 10v-22l10 10v-10l11 11z"></path>
</symbol>
<symbol id="double-left-arrow" viewBox="0 0 32 32">
<path d="M18 5v10l10-10v22l-10-10v10l-11-11z"></path>
</symbol>
<symbol id="icon-arrow-right" viewBox="0 0 32 32">
<path d="M19.414 27.414l10-10c0.781-0.781 0.781-2.047 0-2.828l-10-10c-0.781-0.781-2.047-0.781-2.828 0s-0.781 2.047 0 2.828l6.586 6.586h-19.172c-1.105 0-2 0.895-2 2s0.895 2 2 2h19.172l-6.586 6.586c-0.39 0.39-0.586 0.902-0.586 1.414s0.195 1.024 0.586 1.414c0.781 0.781 2.047 0.781 2.828 0z"></path>
</symbol>
<symbol id="icon-arrow-left" viewBox="0 0 32 32">
<path d="M12.586 27.414l-10-10c-0.781-0.781-0.781-2.047 0-2.828l10-10c0.781-0.781 2.047-0.781 2.828 0s0.781 2.047 0 2.828l-6.586 6.586h19.172c1.105 0 2 0.895 2 2s-0.895 2-2 2h-19.172l6.586 6.586c0.39 0.39 0.586 0.902 0.586 1.414s-0.195 1.024-0.586 1.414c-0.781 0.781-2.047 0.781-2.828 0z"></path>
</symbol>
<symbol id="dots" viewBox="0 0 107 32">
<path d="M17.25 5.333c2.833 0 5.021 0.813 6.562 2.438 1.542 1.583 2.313 3.583 2.313 6 0 2.375-0.771 4.354-2.313 5.938-1.542 1.542-3.729 2.312-6.562 2.312-2.708 0-4.854-0.771-6.438-2.312s-2.375-3.521-2.375-5.938c0-2.417 0.771-4.417 2.312-6 1.542-1.625 3.708-2.438 6.5-2.438zM53 5.333c2.833 0 5.021 0.813 6.562 2.438 1.542 1.583 2.313 3.583 2.313 6 0 2.375-0.771 4.354-2.313 5.938-1.542 1.542-3.729 2.312-6.562 2.312-2.708 0-4.854-0.771-6.438-2.312s-2.375-3.521-2.375-5.938c0-2.417 0.771-4.417 2.313-6 1.542-1.625 3.708-2.438 6.5-2.438zM88.75 5.333c2.833 0 5.021 0.813 6.563 2.438 1.542 1.583 2.312 3.583 2.312 6 0 2.375-0.771 4.354-2.312 5.938-1.542 1.542-3.729 2.312-6.563 2.312-2.708 0-4.854-0.771-6.437-2.312s-2.375-3.521-2.375-5.938c0-2.417 0.771-4.417 2.313-6 1.542-1.625 3.708-2.438 6.5-2.438z"></path>
</symbol>
<symbol id="icon-up-vote-arrow" viewBox="0 0 32 32">
<path d="M16 0c4.418 0 8.418 1.791 11.313 4.687s4.687 6.895 4.687 11.313c0 4.418-1.791 8.418-4.687 11.313s-6.895 4.687-11.313 4.687-8.418-1.791-11.313-4.687c-2.896-2.895-4.687-6.896-4.687-11.313s1.791-8.418 4.687-11.313c2.895-2.896 6.895-4.687 11.313-4.687zM19.338 17.292v3.773c0 0.296-0.248 0.545-0.544 0.545h-5.588c-0.296 0-0.544-0.245-0.544-0.545v-3.773h-2.716c-0.281-0.001-0.563-0.098-0.791-0.296-0.501-0.437-0.554-1.198-0.117-1.699l6.211-7.129c0.043-0.048 0.089-0.094 0.141-0.136 0.512-0.424 1.271-0.352 1.695 0.16l5.861 7.083c0.196 0.214 0.316 0.5 0.316 0.813 0 0.666-0.54 1.205-1.206 1.205h-2.716zM25.382 6.618c-2.401-2.401-5.718-3.886-9.382-3.886s-6.981 1.486-9.382 3.886c-2.401 2.401-3.886 5.718-3.886 9.382s1.486 6.981 3.886 9.382c2.401 2.401 5.718 3.886 9.382 3.886s6.981-1.486 9.382-3.886c2.401-2.401 3.886-5.718 3.886-9.382s-1.486-6.981-3.886-9.382z"></path>
</symbol>
<symbol id="icon-up-arrow" viewBox="0 0 30 32">
<path d="M6.495 17.677c-0.678 0.625-1.587 1.009-2.586 1.009-2.108 0-3.818-1.709-3.818-3.818 0-1.019 0.4-1.945 1.051-2.63l-0.002 0.002 11.315-11.143c0.689-0.678 1.634-1.096 2.677-1.096s1.989 0.418 2.678 1.096l-0-0 11.096 10.922c0.665 0.686 1.075 1.623 1.075 2.655 0 2.108-1.709 3.818-3.818 3.818-1.009 0-1.926-0.391-2.608-1.030l0.002 0.002-4.688-4.607-0.076 15.409c-0.026 5.021-7.661 4.948-7.638-0.065l0.078-15.18-4.74 4.656z"></path>
</symbol>
<symbol id="icon-double-arrow-top" viewBox="0 0 32 32">
<path d="M28.334 17.587c0.424 0.403 0.973 0.601 1.522 0.593s1.093-0.219 1.506-0.635l0.031-0.031c0.39-0.411 0.58-0.937 0.572-1.459s-0.213-1.043-0.617-1.444c-4.592-4.594-9.262-9.139-13.89-13.705-0.013-0.018-0.026-0.034-0.042-0.049-0.424-0.406-0.978-0.604-1.527-0.596s-1.095 0.221-1.509 0.637l-0.068 0.070c-4.566 4.55-9.145 9.087-13.7 13.646-0.401 0.401-0.606 0.918-0.614 1.441s0.182 1.048 0.575 1.459l0.039 0.039c0.411 0.408 0.952 0.619 1.499 0.627s1.098-0.19 1.522-0.593l12.298-12.285 12.402 12.285zM27.814 31.056c0.421 0.401 0.97 0.596 1.517 0.588 0.549-0.008 1.093-0.219 1.506-0.635l0.031-0.031c0.39-0.408 0.58-0.937 0.575-1.459-0.008-0.523-0.213-1.046-0.617-1.444-4.498-4.496-8.921-9.145-13.365-13.703-0.013-0.018-0.029-0.036-0.044-0.055-0.424-0.403-0.978-0.601-1.527-0.593s-1.095 0.221-1.509 0.637c-4.41 4.553-8.804 9.124-13.208 13.685l-0.034 0.031c-0.401 0.398-0.604 0.918-0.611 1.441s0.182 1.048 0.575 1.459l0.039 0.039c0.411 0.408 0.952 0.619 1.499 0.627s1.098-0.19 1.522-0.593l11.77-12.274 11.882 12.28z"></path>
</symbol>
<symbol id="github" viewBox="0 0 32 32">
<path d="M14.533 2.8c-6.133 0.667-11.067 5.6-11.733 11.6-0.8 6.667 3.333 12.4 9.2 14.267v-3.067c0 0-0.533 0.133-1.2 0.133-1.867 0-2.667-1.6-2.8-2.533-0.133-0.533-0.4-0.933-0.8-1.333-0.4-0.133-0.533-0.133-0.533-0.267 0-0.267 0.4-0.267 0.533-0.267 0.8 0 1.467 0.933 1.733 1.333 0.667 1.067 1.467 1.333 1.867 1.333 0.533 0 0.933-0.133 1.2-0.267 0.133-0.933 0.533-1.867 1.333-2.4-3.067-0.667-5.333-2.4-5.333-5.333 0-1.467 0.667-2.933 1.6-4-0.133-0.267-0.267-0.933-0.267-1.867 0-0.533 0-1.333 0.4-2.133 0 0 1.867 0 3.733 1.733 0.667-0.267 1.6-0.4 2.533-0.4s1.867 0.133 2.667 0.4c1.733-1.733 3.733-1.733 3.733-1.733 0.267 0.8 0.267 1.6 0.267 2.133 0 1.067-0.133 1.6-0.267 1.867 0.933 1.067 1.6 2.4 1.6 4 0 2.933-2.267 4.667-5.333 5.333 0.8 0.667 1.333 1.867 1.333 3.067v4.4c5.467-1.733 9.333-6.8 9.333-12.667 0-8-6.8-14.267-14.8-13.333z"></path>
</symbol>
</defs>
</svg>
