<svg aria-hidden="true" style="position: absolute; width: 0; height: 0; overflow: hidden;" version="1.1" xmlns="http://www.w3.org/2000/svg" xmlns:xlink="http://www.w3.org/1999/xlink">
<defs>
<symbol id="icon-search" viewBox="0 0 32 32">
<path fill="none" stroke="#fff" style="stroke: var(--color2, #fff)" stroke-linejoin="round" stroke-linecap="round" stroke-miterlimit="4" stroke-width="2.6667" d="M14.667 25.333c5.891 0 10.667-4.776 10.667-10.667s-4.776-10.667-10.667-10.667c-5.891 0-10.667 4.776-10.667 10.667s4.776 10.667 10.667 10.667z"></path>
<path fill="none" stroke="#fff" style="stroke: var(--color2, #fff)" stroke-linejoin="round" stroke-linecap="round" stroke-miterlimit="4" stroke-width="2.6667" d="M28 28.001l-5.8-5.8"></path>
</symbol>
<symbol id="icon-logo" viewBox="0 0 32 32">
<path stroke-linejoin="round" stroke-linecap="round" stroke-miterlimit="4" stroke-width="2.6667" d="M26.427 2.667h-20.853c-1.605 0-2.907 1.301-2.907 2.907v20.853c0 1.605 1.301 2.907 2.907 2.907h20.853c1.605 0 2.907-1.301 2.907-2.907v-20.853c0-1.605-1.301-2.907-2.907-2.907z"></path>
<path stroke-linejoin="round" stroke-linecap="round" stroke-miterlimit="4" stroke-width="2.6667" d="M9.333 2.667v26.667"></path>
<path stroke-linejoin="round" stroke-linecap="round" stroke-miterlimit="4" stroke-width="2.6667" d="M22.667 2.667v26.667"></path>
<path stroke-linejoin="round" stroke-linecap="round" stroke-miterlimit="4" stroke-width="2.6667" d="M2.667 16h26.667"></path>
<path stroke-linejoin="round" stroke-linecap="round" stroke-miterlimit="4" stroke-width="2.6667" d="M2.667 9.333h6.667"></path>
<path stroke-linejoin="round" stroke-linecap="round" stroke-miterlimit="4" stroke-width="2.6667" d="M2.667 22.667h6.667"></path>
<path stroke-linejoin="round" stroke-linecap="round" stroke-miterlimit="4" stroke-width="2.6667" d="M22.667 22.667h6.667"></path>
<path stroke-linejoin="round" stroke-linecap="round" stroke-miterlimit="4" stroke-width="2.6667" d="M22.667 9.333h6.667"></path>
</symbol>
<symbol id="icon-heart" viewBox="0 0 32 32">
<path d="M16 30.583l-2.24-2.24c-8.32-7.36-13.76-12.32-13.76-18.4 0-4.96 3.84-8.8 8.8-8.8 2.72 0 5.44 1.28 7.2 3.36 1.76-2.080 4.48-3.36 7.2-3.36 4.96 0 8.8 3.84 8.8 8.8 0 6.080-5.44 11.040-13.76 18.4l-2.24 2.24z"></path>
</symbol>
<symbol id="icon-close" viewBox="0 0 32 32">
<path d="M26.667 7.303l-1.97-1.97-7.808 7.808-7.808-7.808-1.97 1.97 7.808 7.808-7.808 7.808 1.97 1.97 7.808-7.808 7.808 7.808 1.97-1.97-7.808-7.808 7.808-7.808z"></path>
</symbol>
<symbol id="right-arrow" viewBox="0 0 32 32">
<path d="M24.301 14.971l-14.545-14.545c-0.568-0.568-1.489-0.568-2.057 0s-0.568 1.489 0 2.057l13.517 13.517-13.517 13.517c-0.568 0.568-0.568 1.489 0 2.057 0.284 0.284 0.656 0.426 1.028 0.426s0.745-0.142 1.029-0.426l14.545-14.546c0.273-0.273 0.426-0.643 0.426-1.028s-0.153-0.756-0.426-1.029z"></path>
</symbol>
<symbol id="left-arrow" viewBox="0 0 32 32">
<path d="M10.784 16l13.517-13.517c0.568-0.568 0.568-1.489 0-2.057s-1.489-0.568-2.057 0l-14.545 14.546c-0.273 0.273-0.426 0.643-0.426 1.028s0.153 0.756 0.426 1.029l14.545 14.545c0.284 0.284 0.656 0.426 1.028 0.426s0.745-0.142 1.029-0.426c0.568-0.568 0.568-1.489 0-2.057l-13.517-13.517z"></path>
</symbol>
<symbol id="double-right-arrow" viewBox="0 0 32 32">
<path d="M16 27v-10l-10 10v-22l10 10v-10l11 11z"></path>
</symbol>
<symbol id="double-left-arrow" viewBox="0 0 32 32">
<path d="M18 5v10l10-10v22l-10-10v10l-11-11z"></path>
</symbol>
<symbol id="dots" viewBox="0 0 107 32">
<path d="M17.25 5.333c2.833 0 5.021 0.813 6.562 2.438 1.542 1.583 2.313 3.583 2.313 6 0 2.375-0.771 4.354-2.313 5.938-1.542 1.542-3.729 2.312-6.562 2.312-2.708 0-4.854-0.771-6.438-2.312s-2.375-3.521-2.375-5.938c0-2.417 0.771-4.417 2.312-6 1.542-1.625 3.708-2.438 6.5-2.438zM53 5.333c2.833 0 5.021 0.813 6.562 2.438 1.542 1.583 2.313 3.583 2.313 6 0 2.375-0.771 4.354-2.313 5.938-1.542 1.542-3.729 2.312-6.562 2.312-2.708 0-4.854-0.771-6.438-2.312s-2.375-3.521-2.375-5.938c0-2.417 0.771-4.417 2.313-6 1.542-1.625 3.708-2.438 6.5-2.438zM88.75 5.333c2.833 0 5.021 0.813 6.563 2.438 1.542 1.583 2.312 3.583 2.312 6 0 2.375-0.771 4.354-2.312 5.938-1.542 1.542-3.729 2.312-6.563 2.312-2.708 0-4.854-0.771-6.437-2.312s-2.375-3.521-2.375-5.938c0-2.417 0.771-4.417 2.313-6 1.542-1.625 3.708-2.438 6.5-2.438z"></path>
</symbol>
</defs>
</svg>
