<svg aria-hidden="true" style="position: absolute; width: 0; height: 0; overflow: hidden;" version="1.1" xmlns="http://www.w3.org/2000/svg" xmlns:xlink="http://www.w3.org/1999/xlink">
<defs>
<symbol fill="none" xmlns="http://www.w3.org/2000/svg" viewBox="0 0 12 12" id="icon-search">
    <path d="M5.5 9.5a4 4 0 100-8 4 4 0 000 8zm5 1L8.325 8.325" stroke="#fff" stroke-linecap="round" stroke-linejoin="round"></path>
    <path d="M5.5 9.5a4 4 0 100-8 4 4 0 000 8zm5 1L8.325 8.325" stroke-linecap="round" stroke-linejoin="round"></path>
  </symbol>
<symbol id="icon-logo" viewBox="0 0 32 32">
<path stroke-linejoin="round" stroke-linecap="round" stroke-miterlimit="4" stroke-width="2.6667" d="M26.427 2.667h-20.853c-1.605 0-2.907 1.301-2.907 2.907v20.853c0 1.605 1.301 2.907 2.907 2.907h20.853c1.605 0 2.907-1.301 2.907-2.907v-20.853c0-1.605-1.301-2.907-2.907-2.907z"></path>
<path stroke-linejoin="round" stroke-linecap="round" stroke-miterlimit="4" stroke-width="2.6667" d="M9.333 2.667v26.667"></path>
<path stroke-linejoin="round" stroke-linecap="round" stroke-miterlimit="4" stroke-width="2.6667" d="M22.667 2.667v26.667"></path>
<path stroke-linejoin="round" stroke-linecap="round" stroke-miterlimit="4" stroke-width="2.6667" d="M2.667 16h26.667"></path>
<path stroke-linejoin="round" stroke-linecap="round" stroke-miterlimit="4" stroke-width="2.6667" d="M2.667 9.333h6.667"></path>
<path stroke-linejoin="round" stroke-linecap="round" stroke-miterlimit="4" stroke-width="2.6667" d="M2.667 22.667h6.667"></path>
<path stroke-linejoin="round" stroke-linecap="round" stroke-miterlimit="4" stroke-width="2.6667" d="M22.667 22.667h6.667"></path>
<path stroke-linejoin="round" stroke-linecap="round" stroke-miterlimit="4" stroke-width="2.6667" d="M22.667 9.333h6.667"></path>
</symbol>
<symbol id="icon-heart" viewBox="0 0 32 32">
<path d="M16 30.583l-2.24-2.24c-8.32-7.36-13.76-12.32-13.76-18.4 0-4.96 3.84-8.8 8.8-8.8 2.72 0 5.44 1.28 7.2 3.36 1.76-2.080 4.48-3.36 7.2-3.36 4.96 0 8.8 3.84 8.8 8.8 0 6.080-5.44 11.040-13.76 18.4l-2.24 2.24z"></path>
</symbol>
<symbol id="icon-close" viewBox="0 0 32 32">
<path d="M26.667 7.303l-1.97-1.97-7.808 7.808-7.808-7.808-1.97 1.97 7.808 7.808-7.808 7.808 1.97 1.97 7.808-7.808 7.808 7.808 1.97-1.97-7.808-7.808 7.808-7.808z"></path>
</symbol>
<symbol id="right-arrow" viewBox="0 0 32 32">
<path d="M24.301 14.971l-14.545-14.545c-0.568-0.568-1.489-0.568-2.057 0s-0.568 1.489 0 2.057l13.517 13.517-13.517 13.517c-0.568 0.568-0.568 1.489 0 2.057 0.284 0.284 0.656 0.426 1.028 0.426s0.745-0.142 1.029-0.426l14.545-14.546c0.273-0.273 0.426-0.643 0.426-1.028s-0.153-0.756-0.426-1.029z"></path>
</symbol>
<symbol id="left-arrow" viewBox="0 0 32 32">
<path d="M10.784 16l13.517-13.517c0.568-0.568 0.568-1.489 0-2.057s-1.489-0.568-2.057 0l-14.545 14.546c-0.273 0.273-0.426 0.643-0.426 1.028s0.153 0.756 0.426 1.029l14.545 14.545c0.284 0.284 0.656 0.426 1.028 0.426s0.745-0.142 1.029-0.426c0.568-0.568 0.568-1.489 0-2.057l-13.517-13.517z"></path>
</symbol>
<symbol id="double-right-arrow" viewBox="0 0 32 32">
<path d="M16 27v-10l-10 10v-22l10 10v-10l11 11z"></path>
</symbol>
<symbol id="double-left-arrow" viewBox="0 0 32 32">
<path d="M18 5v10l10-10v22l-10-10v10l-11-11z"></path>
</symbol>
<symbol id="icon-arrow-right" viewBox="0 0 32 32">
<path d="M19.414 27.414l10-10c0.781-0.781 0.781-2.047 0-2.828l-10-10c-0.781-0.781-2.047-0.781-2.828 0s-0.781 2.047 0 2.828l6.586 6.586h-19.172c-1.105 0-2 0.895-2 2s0.895 2 2 2h19.172l-6.586 6.586c-0.39 0.39-0.586 0.902-0.586 1.414s0.195 1.024 0.586 1.414c0.781 0.781 2.047 0.781 2.828 0z"></path>
</symbol>
<symbol id="icon-arrow-left" viewBox="0 0 32 32">
<path d="M12.586 27.414l-10-10c-0.781-0.781-0.781-2.047 0-2.828l10-10c0.781-0.781 2.047-0.781 2.828 0s0.781 2.047 0 2.828l-6.586 6.586h19.172c1.105 0 2 0.895 2 2s-0.895 2-2 2h-19.172l6.586 6.586c0.39 0.39 0.586 0.902 0.586 1.414s-0.195 1.024-0.586 1.414c-0.781 0.781-2.047 0.781-2.828 0z"></path>
</symbol>
<symbol id="dots" viewBox="0 0 107 32">
<path d="M17.25 5.333c2.833 0 5.021 0.813 6.562 2.438 1.542 1.583 2.313 3.583 2.313 6 0 2.375-0.771 4.354-2.313 5.938-1.542 1.542-3.729 2.312-6.562 2.312-2.708 0-4.854-0.771-6.438-2.312s-2.375-3.521-2.375-5.938c0-2.417 0.771-4.417 2.312-6 1.542-1.625 3.708-2.438 6.5-2.438zM53 5.333c2.833 0 5.021 0.813 6.562 2.438 1.542 1.583 2.313 3.583 2.313 6 0 2.375-0.771 4.354-2.313 5.938-1.542 1.542-3.729 2.312-6.562 2.312-2.708 0-4.854-0.771-6.438-2.312s-2.375-3.521-2.375-5.938c0-2.417 0.771-4.417 2.313-6 1.542-1.625 3.708-2.438 6.5-2.438zM88.75 5.333c2.833 0 5.021 0.813 6.563 2.438 1.542 1.583 2.312 3.583 2.312 6 0 2.375-0.771 4.354-2.312 5.938-1.542 1.542-3.729 2.312-6.563 2.312-2.708 0-4.854-0.771-6.437-2.312s-2.375-3.521-2.375-5.938c0-2.417 0.771-4.417 2.313-6 1.542-1.625 3.708-2.438 6.5-2.438z"></path>
</symbol>
<symbol id="icon-up-vote-arrow" viewBox="0 0 32 32">
<path d="M16 0c4.418 0 8.418 1.791 11.313 4.687s4.687 6.895 4.687 11.313c0 4.418-1.791 8.418-4.687 11.313s-6.895 4.687-11.313 4.687-8.418-1.791-11.313-4.687c-2.896-2.895-4.687-6.896-4.687-11.313s1.791-8.418 4.687-11.313c2.895-2.896 6.895-4.687 11.313-4.687zM19.338 17.292v3.773c0 0.296-0.248 0.545-0.544 0.545h-5.588c-0.296 0-0.544-0.245-0.544-0.545v-3.773h-2.716c-0.281-0.001-0.563-0.098-0.791-0.296-0.501-0.437-0.554-1.198-0.117-1.699l6.211-7.129c0.043-0.048 0.089-0.094 0.141-0.136 0.512-0.424 1.271-0.352 1.695 0.16l5.861 7.083c0.196 0.214 0.316 0.5 0.316 0.813 0 0.666-0.54 1.205-1.206 1.205h-2.716zM25.382 6.618c-2.401-2.401-5.718-3.886-9.382-3.886s-6.981 1.486-9.382 3.886c-2.401 2.401-3.886 5.718-3.886 9.382s1.486 6.981 3.886 9.382c2.401 2.401 5.718 3.886 9.382 3.886s6.981-1.486 9.382-3.886c2.401-2.401 3.886-5.718 3.886-9.382s-1.486-6.981-3.886-9.382z"></path>
</symbol>
<symbol id="icon-up-arrow" viewBox="0 0 30 32">
<path d="M6.495 17.677c-0.678 0.625-1.587 1.009-2.586 1.009-2.108 0-3.818-1.709-3.818-3.818 0-1.019 0.4-1.945 1.051-2.63l-0.002 0.002 11.315-11.143c0.689-0.678 1.634-1.096 2.677-1.096s1.989 0.418 2.678 1.096l-0-0 11.096 10.922c0.665 0.686 1.075 1.623 1.075 2.655 0 2.108-1.709 3.818-3.818 3.818-1.009 0-1.926-0.391-2.608-1.030l0.002 0.002-4.688-4.607-0.076 15.409c-0.026 5.021-7.661 4.948-7.638-0.065l0.078-15.18-4.74 4.656z"></path>
</symbol>
<symbol id="icon-double-arrow-top" viewBox="0 0 32 32">
<path d="M28.334 17.587c0.424 0.403 0.973 0.601 1.522 0.593s1.093-0.219 1.506-0.635l0.031-0.031c0.39-0.411 0.58-0.937 0.572-1.459s-0.213-1.043-0.617-1.444c-4.592-4.594-9.262-9.139-13.89-13.705-0.013-0.018-0.026-0.034-0.042-0.049-0.424-0.406-0.978-0.604-1.527-0.596s-1.095 0.221-1.509 0.637l-0.068 0.070c-4.566 4.55-9.145 9.087-13.7 13.646-0.401 0.401-0.606 0.918-0.614 1.441s0.182 1.048 0.575 1.459l0.039 0.039c0.411 0.408 0.952 0.619 1.499 0.627s1.098-0.19 1.522-0.593l12.298-12.285 12.402 12.285zM27.814 31.056c0.421 0.401 0.97 0.596 1.517 0.588 0.549-0.008 1.093-0.219 1.506-0.635l0.031-0.031c0.39-0.408 0.58-0.937 0.575-1.459-0.008-0.523-0.213-1.046-0.617-1.444-4.498-4.496-8.921-9.145-13.365-13.703-0.013-0.018-0.029-0.036-0.044-0.055-0.424-0.403-0.978-0.601-1.527-0.593s-1.095 0.221-1.509 0.637c-4.41 4.553-8.804 9.124-13.208 13.685l-0.034 0.031c-0.401 0.398-0.604 0.918-0.611 1.441s0.182 1.048 0.575 1.459l0.039 0.039c0.411 0.408 0.952 0.619 1.499 0.627s1.098-0.19 1.522-0.593l11.77-12.274 11.882 12.28z"></path>
</symbol>
<symbol id="github" viewBox="0 0 32 32">
<path d="M14.533 2.8c-6.133 0.667-11.067 5.6-11.733 11.6-0.8 6.667 3.333 12.4 9.2 14.267v-3.067c0 0-0.533 0.133-1.2 0.133-1.867 0-2.667-1.6-2.8-2.533-0.133-0.533-0.4-0.933-0.8-1.333-0.4-0.133-0.533-0.133-0.533-0.267 0-0.267 0.4-0.267 0.533-0.267 0.8 0 1.467 0.933 1.733 1.333 0.667 1.067 1.467 1.333 1.867 1.333 0.533 0 0.933-0.133 1.2-0.267 0.133-0.933 0.533-1.867 1.333-2.4-3.067-0.667-5.333-2.4-5.333-5.333 0-1.467 0.667-2.933 1.6-4-0.133-0.267-0.267-0.933-0.267-1.867 0-0.533 0-1.333 0.4-2.133 0 0 1.867 0 3.733 1.733 0.667-0.267 1.6-0.4 2.533-0.4s1.867 0.133 2.667 0.4c1.733-1.733 3.733-1.733 3.733-1.733 0.267 0.8 0.267 1.6 0.267 2.133 0 1.067-0.133 1.6-0.267 1.867 0.933 1.067 1.6 2.4 1.6 4 0 2.933-2.267 4.667-5.333 5.333 0.8 0.667 1.333 1.867 1.333 3.067v4.4c5.467-1.733 9.333-6.8 9.333-12.667 0-8-6.8-14.267-14.8-13.333z"></path>
</symbol>
<symbol id="icon-heart-7039299" viewBox="0 0 35 32">
<path fill="#fecb00" style="fill: var(--color1, #fecb00)" d="M31.552 18.346c-0.116 0.002-0.233 0.010-0.35 0.009-0.359-0.002-0.716-0.015-1.073-0.038s-0.714-0.056-1.069-0.098c-0.355-0.042-0.709-0.093-1.062-0.152s-0.705-0.126-1.056-0.2c-0.351-0.074-0.701-0.156-1.049-0.243s-0.695-0.181-1.041-0.28c-0.346-0.099-0.69-0.203-1.033-0.311s-0.683-0.221-1.023-0.337c-0.679-0.232-1.356-0.479-2.032-0.732s-1.352-0.512-2.029-0.771c-0.676-0.259-1.353-0.518-2.031-0.769s-1.357-0.494-2.039-0.723c-0.341-0.114-0.683-0.224-1.025-0.33s-0.686-0.206-1.029-0.301c-0.344-0.095-0.688-0.185-1.034-0.269s-0.693-0.161-1.041-0.23c-0.348-0.069-0.697-0.132-1.047-0.185s-0.701-0.099-1.054-0.136c-0.353-0.036-0.706-0.063-1.062-0.080s-0.713-0.024-1.071-0.020c-0.369 0.004-0.738 0.021-1.106 0.050s-0.736 0.068-1.101 0.12c-0.365 0.052-0.729 0.116-1.091 0.191s-0.72 0.162-1.076 0.261c-0.356 0.098-0.708 0.207-1.057 0.328-0.076 0.026-0.15 0.059-0.226 0.087 1.409 4.55 5.199 9.262 11.973 15.042 2.432 2.075 4.557 3.773 4.721 3.773 0.802 0 7.029-5.31 10.192-8.691 1.587-1.697 2.926-3.356 4.022-4.963z"></path>
<path fill="#0068c2" style="fill: var(--color2, #0068c2)" d="M8.317 0c-1.596 0.014-3.153 0.372-4.323 1.107-3.022 1.898-4.040 3.954-3.993 8.060 0.015 1.341 0.226 2.673 0.643 4.018 0.076-0.027 0.15-0.061 0.226-0.087 0.349-0.121 0.701-0.23 1.057-0.328s0.714-0.185 1.076-0.261c0.361-0.075 0.725-0.139 1.091-0.191s0.733-0.092 1.101-0.12c0.368-0.028 0.737-0.045 1.106-0.050 0.359-0.004 0.716 0.003 1.071 0.020s0.709 0.044 1.062 0.080c0.353 0.036 0.704 0.082 1.054 0.136s0.699 0.116 1.047 0.185c0.348 0.069 0.695 0.147 1.041 0.23s0.69 0.173 1.034 0.269c0.344 0.095 0.687 0.195 1.029 0.301s0.684 0.216 1.025 0.33c0.682 0.228 1.361 0.472 2.039 0.723s1.355 0.51 2.031 0.769c0.676 0.259 1.352 0.518 2.029 0.771s1.354 0.5 2.032 0.732c0.339 0.116 0.68 0.229 1.023 0.337s0.687 0.213 1.033 0.311c0.346 0.099 0.693 0.193 1.041 0.28s0.698 0.169 1.049 0.243c0.351 0.074 0.703 0.141 1.056 0.2s0.707 0.11 1.062 0.152c0.355 0.042 0.712 0.075 1.069 0.098s0.715 0.036 1.073 0.038c0.116 0.001 0.233-0.007 0.35-0.009 4.505-6.612 4.829-12.352 0.748-16.262-1.387-1.329-2.477-1.762-4.955-1.967-3.873-0.321-6.375 0.808-8.269 3.732-1.509 2.329-1.992 2.52-2.48 0.982-0.189-0.595-1.14-1.845-2.115-2.778-1.415-1.356-3.831-2.072-6.163-2.052z"></path>
<path fill="#000" style="fill: var(--color3, #000)" opacity="0.217903" d="M21.689 27.451c7.613-8.093 10.49-13.114 10.5-18.323 0.007-4.137-1.26-6.453-4.332-7.913l-2.481-1.179 2.586 0.289c4.755 0.531 7.77 5.211 6.879 10.678-0.672 4.123-3.268 8.132-8.943 13.809-6.573 6.576-9.838 8.623-4.209 2.64zM14.238 5.404c-1.238-2.244-2.277-3.278-4.15-4.128-2.431-1.103-2.45-1.135-0.72-1.145 3.317-0.020 8.335 4.48 7.862 7.051-0.322 1.752-1.397 1.113-2.992-1.777z"></path>
<path fill="#fff" style="fill: var(--color4, #fff)" opacity="0.367623" d="M6.444 2.729c-0.727-0.004-1.504 0.456-2.448 1.4-2.635 2.375-1.052 11.816 0.124 5.816 0.217-0.989 1.66-2.366 2.594-3.057 2.161-1.598 2.531-2.17 1.392-3.308-0.561-0.561-1.096-0.847-1.662-0.851zM24.069 2.86c-1.031-0.007-2.121 0.773-2.858 2.198-1.161 2.245-0.507 2.359 1.193 2.359 0.797 0 1.571-0.651 2.486-1.445 1.544-1.341 1.594-1.515 0.692-2.432-0.449-0.456-0.973-0.676-1.514-0.68z"></path>
</symbol>
<symbol id="icon_ukraine_nation_country_love_heart" viewBox="0 0 32 32">
<path fill="#2a75e6" style="fill: var(--color5, #2a75e6)" d="M23.342 3c-0.003 0-0.006 0-0.009 0-3.204 0-5.976 1.846-7.312 4.532l-0.021 0.047c-1.357-2.733-4.13-4.579-7.333-4.579-0.003 0-0.006 0-0.010 0h0.001c-4.505 0-8.158 3.638-8.158 8.125 0 10.563 15.5 17.875 15.5 17.875s15.5-7.313 15.5-17.875c0-4.487-3.652-8.125-8.158-8.125z"></path>
<path fill="#f9d549" style="fill: var(--color6, #f9d549)" d="M1.595 16c3.534 7.871 14.405 13 14.405 13s10.871-5.129 14.405-13z"></path>
</symbol>
<symbol id="icon-sun" viewBox="0 0 24 24">
<path d="M18 12c0-1.657-0.673-3.158-1.757-4.243s-2.586-1.757-4.243-1.757-3.158 0.673-4.243 1.757-1.757 2.586-1.757 4.243 0.673 3.158 1.757 4.243 2.586 1.757 4.243 1.757 3.158-0.673 4.243-1.757 1.757-2.586 1.757-4.243zM16 12c0 1.105-0.447 2.103-1.172 2.828s-1.723 1.172-2.828 1.172-2.103-0.447-2.828-1.172-1.172-1.723-1.172-2.828 0.447-2.103 1.172-2.828 1.723-1.172 2.828-1.172 2.103 0.447 2.828 1.172 1.172 1.723 1.172 2.828zM11 1v2c0 0.552 0.448 1 1 1s1-0.448 1-1v-2c0-0.552-0.448-1-1-1s-1 0.448-1 1zM11 21v2c0 0.552 0.448 1 1 1s1-0.448 1-1v-2c0-0.552-0.448-1-1-1s-1 0.448-1 1zM3.513 4.927l1.42 1.42c0.391 0.391 1.024 0.391 1.414 0s0.391-1.024 0-1.414l-1.42-1.42c-0.391-0.391-1.024-0.391-1.414 0s-0.391 1.024 0 1.414zM17.653 19.067l1.42 1.42c0.391 0.391 1.024 0.391 1.414 0s0.391-1.024 0-1.414l-1.42-1.42c-0.391-0.391-1.024-0.391-1.414 0s-0.391 1.024 0 1.414zM1 13h2c0.552 0 1-0.448 1-1s-0.448-1-1-1h-2c-0.552 0-1 0.448-1 1s0.448 1 1 1zM21 13h2c0.552 0 1-0.448 1-1s-0.448-1-1-1h-2c-0.552 0-1 0.448-1 1s0.448 1 1 1zM4.927 20.487l1.42-1.42c0.391-0.391 0.391-1.024 0-1.414s-1.024-0.391-1.414 0l-1.42 1.42c-0.391 0.391-0.391 1.024 0 1.414s1.024 0.391 1.414 0zM19.067 6.347l1.42-1.42c0.391-0.391 0.391-1.024 0-1.414s-1.024-0.391-1.414 0l-1.42 1.42c-0.391 0.391-0.391 1.024 0 1.414s1.024 0.391 1.414 0z"></path>
</symbol>
<symbol id="icon-moon-fill" viewBox="0 0 32 32">
<path d="M24.633 22.184c-8.188 0-14.82-6.637-14.82-14.82 0-2.695 0.773-5.188 2.031-7.363-6.824 1.968-11.844 8.187-11.844 15.644 0 9.031 7.32 16.355 16.352 16.355 7.457 0 13.68-5.023 15.648-11.844-2.18 1.254-4.672 2.028-7.367 2.028z"></path>
</symbol>
</defs>
</svg>
